# xmcd CD database file
#
# Track frame offsets:
#	150
#	16164
#	35573
#	49245
#	62982
#	76289
#	104189
#
# Disc length: 1682 seconds
#
# Revision: 0
# Processed by: cddbd v1.5.2PL0 Copyright (c) Steve Scherf et al.
# Submitted via: CDex 1.51
#
DISCID=5c069007
DTITLE=Harajyuku BJ Girls - BJ ONE!
DYEAR=2005
DGENRE=Jazz
TTITLE0=You'd be so Nice to come Home To 織田かおり
TTITLE1=Fly me to the Moon 岩城文夏
TTITLE2=Bei Mir Bist Du Schoen 水橋舞
TTITLE3=Softly as in a Morning Sunrise 松原緋子
TTITLE4=You and the Night and the Music 工藤真由
TTITLE5=Round Midnight 白鳥吏南
TTITLE6=Over the Rainbow 原宿 BJ Girls
EXTD=YEAR: 2005
EXTT0=
EXTT1=
EXTT2=
EXTT3=
EXTT4=
EXTT5=
EXTT6=
PLAYORDER=
